<?xml version="1.0" encoding="UTF-8"?>
<svg version="1.1" viewBox="0 0 1200 1200" xmlns="http://www.w3.org/2000/svg">
 <g>
  <path d="m695.71 191.59c0-47.328-38.496-85.848-85.848-85.848-47.328 0-85.848 38.496-85.848 85.848s38.496 85.848 85.848 85.848c47.352 0 85.848-38.496 85.848-85.848zm-85.848 37.848c-20.855 0-37.848-16.992-37.848-37.848s16.992-37.848 37.848-37.848c20.879 0 37.848 16.992 37.848 37.848 0 20.879-16.969 37.848-37.848 37.848z"/>
  <path d="m1104.6 514.66c-38.953 0-71.543 26.23-82.008 61.871l-348.34-0.023438v-96.793h289.75c13.273 0 24-10.754 24-24l-0.003907-225.74c35.617-10.465 61.848-43.055 61.848-82.008 0-47.328-38.496-85.824-85.848-85.824-47.352 0-85.848 38.496-85.848 85.824 0 38.953 26.23 71.543 61.848 82.008v201.72h-262.8c80.16-36.336 132.82-116.45 132.82-205.56 0-124.68-101.45-226.13-226.13-226.13-124.68 0-226.13 101.45-226.13 226.13 0 91.727 55.656 174.07 139.78 208.82l15.719 58.32h-253.32v-201.72c35.617-10.465 61.848-43.078 61.848-82.031 0-47.328-38.496-85.824-85.848-85.824-47.352-0.003907-85.848 38.516-85.848 85.82 0 38.953 26.23 71.566 61.848 82.031v225.72c0 13.246 10.754 24 24 24h290.23l5.3516 19.824-30.336 76.992-323.81 0.003906c-10.465-35.617-43.055-61.848-82.008-61.848-47.328 0-85.848 38.496-85.848 85.848 0 47.352 38.496 85.848 85.848 85.848 38.953 0 71.543-26.23 82.008-61.848h316.13v74.039c0 4.5117 1.2734 8.9297 3.6719 12.742l6 9.5273h-267.24c-13.246 0-24 10.727-24 24v225.72c-35.617 10.465-61.848 43.055-61.848 81.984 0 47.379 38.496 85.898 85.848 85.898 47.352 0 85.871-38.52 85.871-85.871 0-38.93-26.23-71.52-61.871-81.984v-201.72h273.36l4.3203 6.8633-40.633 67.344c-4.9453 8.1836-4.5586 18.504 0.98437 26.305l66.383 93.527c4.5117 6.3359 11.785 10.105 19.559 10.105 7.7773 0 15.07-3.7695 19.559-10.105l66.383-93.527c2.8789-4.0781 4.4414-8.9297 4.4414-13.895v-148.22h265.75v201.74c-35.617 10.465-61.848 43.055-61.848 81.984 0 47.352 38.496 85.871 85.848 85.871 47.352 0 85.848-38.52 85.848-85.871 0-38.93-26.23-71.52-61.848-81.984v-225.74c0-13.273-10.727-24-24-24l-289.77-0.003906v-96.312l348.34 0.023438c10.465 35.617 43.055 61.848 82.008 61.848 47.352 0 85.848-38.496 85.848-85.848 0-47.352-38.52-85.871-85.871-85.871zm-906.5-305.14c0-20.855 16.992-37.824 37.848-37.824 20.855 0 37.848 16.969 37.848 37.824 0 20.879-16.992 37.871-37.848 37.871-20.855 0-37.848-16.965-37.848-37.871zm75.719 904.61c0 20.879-16.992 37.871-37.871 37.871-20.879 0-37.848-16.992-37.848-37.871 0-20.855 16.992-37.824 37.848-37.824 20.879 0 37.871 16.969 37.871 37.824zm728.06-61.609c0 20.879-16.969 37.871-37.848 37.871s-37.848-16.992-37.848-37.871c0-20.855 16.969-37.824 37.848-37.824s37.848 16.969 37.848 37.824zm-75.695-904.56c0-20.855 16.969-37.824 37.848-37.824s37.848 16.969 37.848 37.824c0 20.879-16.969 37.848-37.848 37.848s-37.848-16.992-37.848-37.848zm-830.81 551.98c-20.855 0-37.848-16.969-37.848-37.848s16.992-37.848 37.848-37.848 37.848 16.969 37.848 37.848-16.992 37.848-37.848 37.848zm530.91 209.45-42.383 59.711-37.703-53.137 40.152-66.504c4.6797-7.7539 4.6094-17.496-0.21484-25.152l-44.617-71.09v-86.566l37.559-95.305c1.8945-4.8008 2.1836-10.055 0.86328-15.047l-39.238-145.63c-2.0625-7.6562-7.8008-13.824-15.289-16.414-71.566-24.887-119.64-92.449-119.64-168.07 0-98.254 79.895-178.18 178.12-178.18s178.13 79.922 178.13 178.13c0 75.648-48.07 143.18-119.62 168.07-9.6484 3.3594-16.129 12.457-16.129 22.656zm478.32-271.01c-20.879 0-37.848-16.992-37.848-37.848 0-20.879 16.969-37.871 37.848-37.871 20.879 0 37.848 16.992 37.848 37.871 0.023437 20.855-16.945 37.848-37.848 37.848z"/>
 </g>
</svg>
