<svg version="1.2" xmlns="http://www.w3.org/2000/svg" xmlns:xlink="http://www.w3.org/1999/xlink" overflow="visible" preserveAspectRatio="none" viewBox="0 0 1176.5 88.19999694824219" xml:space="preserve" y="0px" x="0px" width="190" height="14"><g transform="translate(1, 1)"><style type="text/css">
	.st0_1586361025963{fill:#FFFFFF;}
	.st1_1586361025963{fill:#95C230;}
	.st2_1586361025963{display:none;}
	.st3_1586361025963{display:inline;fill:#BCC2C3;}
</style><g id="Ebene_1_1586361025963">
	<g>
		<path d="M45.5,35V0.5h16.3v85H45.5V51.3H16.3v34.3H0v-85h16.3V35H45.5z" class="st0_1586361025963" vector-effect="non-scaling-stroke" style="fill: rgb(201, 201, 201);"/>
		<path d="M133.7,0.5v16.3H96.4V35h32.4v16.3H96.4v18h37.3v16.3H88.1c-0.7,0-1.4-0.2-1.9-0.8l-5.3-5.3    C80.3,79,80,78.3,80,77.5v-69c0-0.7,0.2-1.4,0.8-1.9l5.3-5.3c0.5-0.5,1.2-0.8,1.9-0.8H133.7z" class="st0_1586361025963" vector-effect="non-scaling-stroke" style="fill: rgb(201, 201, 201);"/>
		<path d="M158.9,85.6c-0.7,0-1.4-0.2-1.9-0.8l-5.3-5.3c-0.6-0.5-0.8-1.2-0.8-1.9v-77h16.3v68.7h35.5v16.3H158.9z" class="st0_1586361025963" vector-effect="non-scaling-stroke" style="fill: rgb(201, 201, 201);"/>
		<path d="M290.3,0.5v85h-16.3v-47l-13.3,27.8c-0.5,1-1.4,1.6-2.4,1.6h-9.6c-1.1,0-2-0.6-2.5-1.6l-13.3-27.8v47h-16.3    v-85h16.3l20.6,43.2l20.5-43.2H290.3z" class="st0_1586361025963" vector-effect="non-scaling-stroke" style="fill: rgb(201, 201, 201);"/>
		<path d="M352.9,35V0.5h16.3v85h-16.3V51.3h-29.1v34.3h-16.3v-85h16.3V35H352.9z" class="st0_1586361025963" vector-effect="non-scaling-stroke" style="fill: rgb(201, 201, 201);"/>
		<path d="M434.8,4.6l8.5,8.4c2.5,2.5,4,6,4,9.6v40.9c0,3.6-1.4,7.1-4,9.6l-8.5,8.5c-2.5,2.5-6,4-9.6,4h-19.1    c-3.6,0-7.2-1.3-9.7-4l-8.4-8.5c-2.5-2.5-4-6-4-9.6V22.6c0-3.6,1.4-7.1,4-9.6l8.4-8.4c2.6-2.6,6.1-4.1,9.7-4.1h19.1    C428.8,0.5,432.1,2.1,434.8,4.6z M430.9,61.3V24.9c0-0.7-0.4-1.4-0.8-1.9l-5.2-5.3c-0.6-0.5-1.3-0.8-2-0.8h-14.6    c-0.7,0-1.3,0.4-1.9,0.8l-5.2,5.3c-0.6,0.5-0.8,1.2-0.8,1.9v36.5c0,0.7,0.2,1.3,0.8,1.9l5.2,5.2c0.6,0.6,1.2,0.8,1.9,0.8h14.6    c0.7,0,1.4-0.2,2-0.8l5.2-5.2C430.6,62.7,430.9,62.1,430.9,61.3z" class="st0_1586361025963" vector-effect="non-scaling-stroke" style="fill: rgb(201, 201, 201);"/>
		<path d="M469.7,85.6c-0.7,0-1.4-0.2-1.9-0.8l-5.3-5.3c-0.6-0.5-0.8-1.2-0.8-1.9v-77H478v68.7h35.5v16.3H469.7z" class="st0_1586361025963" vector-effect="non-scaling-stroke" style="fill: rgb(201, 201, 201);"/>
		<path d="M512.3,16.8V0.5h61.4v16.3h-22.6v68.7h-16.3V16.8H512.3z" class="st0_1586361025963" vector-effect="non-scaling-stroke" style="fill: rgb(201, 201, 201);"/>
		<path d="M636.9,1.4l5.3,5.3c0.5,0.5,0.8,1.2,0.8,1.9v4.2l-35.7,56.5h35.3v16.3h-48.7c-0.7,0-1.4-0.2-1.9-0.8l-5.3-5.3    c-0.5-0.5-0.8-1.2-0.8-1.9v-4.9l35.3-55.8h-35.7V0.5H635C635.7,0.5,636.4,0.9,636.9,1.4z" class="st0_1586361025963" vector-effect="non-scaling-stroke" style="fill: rgb(201, 201, 201);"/>
	</g>
	<g>
		<path d="M704.3,0.6h7.5c2.9,0,5.1,0.1,6.6,0.3c2.9,0.4,5.2,1.5,6.8,3.4c1.5,1.8,2.3,4,2.3,6.6c0,4.6-2.2,7.8-6.7,9.6    l8.6,15h-6.4l-8-14.1h-5.4v14.1h-5.4V0.6z M709.7,16.8h2.4c3.1,0,5.2-0.2,6.4-0.6c1.2-0.4,2-1.1,2.6-2.2c0.5-0.9,0.8-1.9,0.8-3.1    c0-2.3-0.9-3.9-2.7-4.8c-0.9-0.5-2.2-0.7-3.8-0.8c-0.6,0-1.8-0.1-3.5-0.1h-2.2V16.8z" class="st1_1586361025963" vector-effect="non-scaling-stroke" style="fill: rgb(201, 201, 201);"/>
		<path d="M740,15.1h14v4.7h-14v11.1h15.8v4.7h-21.2v-35h20.7v4.6H740V15.1z" class="st1_1586361025963" vector-effect="non-scaling-stroke" style="fill: rgb(201, 201, 201);"/>
		<path d="M783.4,10.3h-5.2c-0.1-1.5-0.6-2.7-1.3-3.6c-1.1-1.3-2.8-2-4.9-2c-1.5,0-2.8,0.4-3.8,1.1    c-1.2,0.9-1.8,2-1.8,3.4c0,1.3,0.6,2.3,1.9,3.1c0.8,0.5,2.8,1.4,5.9,2.7c2.7,1.1,4.6,2,5.6,2.6c3.1,1.9,4.7,4.6,4.7,8.2    c0,3.4-1.3,6.1-3.9,8.1c-2.1,1.6-4.8,2.3-8.1,2.3c-4.9,0-8.4-1.6-10.7-4.8c-1.2-1.8-1.9-4.2-2.1-7.2h5.3c0.2,2.2,0.8,3.8,1.8,5    c1.3,1.5,3.3,2.3,5.8,2.3c1.8,0,3.4-0.5,4.6-1.4c1.2-0.9,1.7-2,1.7-3.4c0-1.5-0.8-2.8-2.3-3.8c-0.8-0.6-2.7-1.5-5.7-2.8    c-3.6-1.5-6-2.9-7.2-4c-1.9-1.7-2.8-3.9-2.8-6.5c0-3.2,1.3-5.8,3.9-7.5c2.1-1.5,4.6-2.2,7.4-2.2c4.2,0,7.4,1.4,9.5,4.3    C782.7,5.8,783.3,7.8,783.4,10.3z" class="st1_1586361025963" vector-effect="non-scaling-stroke" style="fill: rgb(201, 201, 201);"/>
		<path d="M796.5,15.1h14v4.7h-14v11.1h15.8v4.7h-21.2v-35h20.7v4.6h-15.3V15.1z" class="st1_1586361025963" vector-effect="non-scaling-stroke" style="fill: rgb(201, 201, 201);"/>
		<path d="M826.8,0.5h5.3l12,35.1h-5.6l-2.6-8.2h-12.7l-2.6,8.2h-5.6L826.8,0.5z M834.4,22.7L829.4,7l-4.9,15.7H834.4z" class="st1_1586361025963" vector-effect="non-scaling-stroke" style="fill: rgb(201, 201, 201);"/>
		<path d="M849.2,0.6h7.5c2.9,0,5.1,0.1,6.6,0.3c2.9,0.4,5.2,1.5,6.8,3.4c1.5,1.8,2.3,4,2.3,6.6c0,4.6-2.2,7.8-6.7,9.6    l8.6,15h-6.4l-8-14.1h-5.4v14.1h-5.4V0.6z M854.6,16.8h2.4c3.1,0,5.2-0.2,6.4-0.6c1.2-0.4,2-1.1,2.6-2.2c0.5-0.9,0.8-1.9,0.8-3.1    c0-2.3-0.9-3.9-2.7-4.8c-0.9-0.5-2.2-0.7-3.8-0.8c-0.6,0-1.8-0.1-3.5-0.1h-2.2V16.8z" class="st1_1586361025963" vector-effect="non-scaling-stroke" style="fill: rgb(201, 201, 201);"/>
		<path d="M904.3,11.2h-4.8c-0.8-4.3-3.2-6.5-7.2-6.5c-2.8,0-5,1.1-6.6,3.4c-1.8,2.5-2.6,5.9-2.6,10    c0,4.2,0.9,7.6,2.7,10.1c1.6,2.2,3.8,3.3,6.6,3.3c4.5,0,7-2.8,7.5-8.4h4.9c-0.2,3.1-0.9,5.7-2,7.7c-2.1,3.6-5.5,5.4-10.2,5.4    c-4.2,0-7.7-1.4-10.4-4.2c-3.2-3.3-4.8-7.9-4.8-13.8c0-6.4,1.8-11.3,5.4-14.6c2.6-2.4,5.9-3.6,9.6-3.6c2.4,0,4.5,0.5,6.4,1.5    C902,3.3,903.9,6.5,904.3,11.2z" class="st1_1586361025963" vector-effect="non-scaling-stroke" style="fill: rgb(201, 201, 201);"/>
		<path d="M916.4,15.1h15.1V0.6h5.4v35h-5.4v-16h-15.1v16H911v-35h5.4V15.1z" class="st1_1586361025963" vector-effect="non-scaling-stroke" style="fill: rgb(201, 201, 201);"/>
		<path d="M964.1,15.1h14v4.7h-14v15.8h-5.4v-35h20.7v4.6h-15.3V15.1z" class="st1_1586361025963" vector-effect="non-scaling-stroke" style="fill: rgb(201, 201, 201);"/>
		<path d="M998.1-0.1c4.2,0,7.6,1.5,10.4,4.4c3.1,3.3,4.7,7.9,4.7,13.7c0,5.8-1.6,10.4-4.7,13.7    c-2.8,2.9-6.2,4.4-10.4,4.4c-4.2,0-7.7-1.5-10.4-4.4c-3.1-3.3-4.7-8-4.7-14c0-2.6,0.4-5.2,1.3-7.7c1.2-3.5,3.2-6.2,6.3-8    C992.8,0.6,995.3-0.1,998.1-0.1z M998.1,4.6c-2.9,0-5.1,1.1-6.7,3.4c-1.8,2.6-2.7,5.9-2.7,9.9c0,4.3,0.9,7.7,2.7,10.3    c1.6,2.3,3.8,3.4,6.7,3.4c2.9,0,5.1-1.1,6.7-3.4c1.8-2.6,2.7-5.9,2.7-10.1c0-4.2-0.9-7.6-2.7-10.1C1003.2,5.7,1001,4.6,998.1,4.6z" class="st1_1586361025963" vector-effect="non-scaling-stroke" style="fill: rgb(201, 201, 201);"/>
		<path d="M1019.8,0.6h7.5c2.9,0,5.1,0.1,6.6,0.3c2.9,0.4,5.2,1.5,6.8,3.4c1.5,1.8,2.3,4,2.3,6.6c0,4.6-2.2,7.8-6.7,9.6    l8.6,15h-6.4l-8-14.1h-5.4v14.1h-5.4V0.6z M1025.2,16.8h2.4c3.1,0,5.2-0.2,6.4-0.6c1.2-0.4,2-1.1,2.6-2.2c0.5-0.9,0.8-1.9,0.8-3.1    c0-2.3-0.9-3.9-2.7-4.8c-0.9-0.5-2.2-0.7-3.8-0.8c-0.6,0-1.8-0.1-3.5-0.1h-2.2V16.8z" class="st1_1586361025963" vector-effect="non-scaling-stroke" style="fill: rgb(201, 201, 201);"/>
		<path d="M718.4,67.8h11.7v14.5c-3.7,2.6-7.8,3.9-12.3,3.9c-4.5,0-8.2-1.4-10.9-4.3c-1.6-1.6-2.7-3.6-3.5-5.9    c-0.8-2.5-1.2-5.2-1.2-8c0-6,1.6-10.6,4.7-13.9c2.7-2.8,6.2-4.3,10.4-4.3c2.5,0,4.7,0.5,6.6,1.6c3.3,1.8,5.2,5,5.6,9.6h-4.8    c-0.8-4.3-3.3-6.4-7.4-6.4c-2.8,0-5,1-6.6,3c-2,2.5-2.9,6-2.9,10.4c0,4.5,1,7.9,3,10.4c1.6,2,3.9,3,6.9,3c2.7,0,5.2-0.8,7.6-2.3    v-7.1h-7.1V67.8z" class="st1_1586361025963" vector-effect="non-scaling-stroke" style="fill: rgb(201, 201, 201);"/>
		<path d="M737.5,50.6h7.5c2.9,0,5.1,0.1,6.6,0.3c2.9,0.4,5.2,1.5,6.8,3.4c1.5,1.8,2.3,4,2.3,6.6c0,4.6-2.2,7.8-6.7,9.6    l8.6,15h-6.4l-8-14.1h-5.4v14.1h-5.4V50.6z M742.9,66.8h2.4c3.1,0,5.2-0.2,6.4-0.6c1.2-0.4,2-1.1,2.6-2.2c0.5-0.9,0.8-1.9,0.8-3.1    c0-2.3-0.9-3.9-2.7-4.8c-0.9-0.5-2.2-0.7-3.8-0.8c-0.6,0-1.8-0.1-3.5-0.1h-2.2V66.8z" class="st1_1586361025963" vector-effect="non-scaling-stroke" style="fill: rgb(201, 201, 201);"/>
		<path d="M776.1,50.5h5.3l12,35.1h-5.6l-2.6-8.2h-12.7l-2.6,8.2h-5.6L776.1,50.5z M783.7,72.7L778.8,57l-4.9,15.7    H783.7z" class="st1_1586361025963" vector-effect="non-scaling-stroke" style="fill: rgb(201, 201, 201);"/>
		<path d="M798.5,50.6h5.8l15.4,26.7V50.6h5.1v35h-5.6l-15.6-26.7v26.7h-5.2V50.6z" class="st1_1586361025963" vector-effect="non-scaling-stroke" style="fill: rgb(201, 201, 201);"/>
		<path d="M833.5,50.6h7.1c2.8,0,5.2,0.1,7,0.4c3.7,0.6,6.7,2.3,9,5.3c2.5,3.2,3.7,7.2,3.7,11.8c0,4.8-1.3,8.8-3.8,12    c-2.3,3-5.5,4.7-9.4,5.2c-1.6,0.2-4,0.3-7.2,0.3h-6.4V50.6z M838.9,80.9h2.8c2.1,0,3.7-0.1,4.9-0.3c2.6-0.5,4.6-1.8,6-4    c1.4-2.3,2.1-5.2,2.1-8.6c0-3.5-0.8-6.4-2.4-8.7c-1.4-2.1-3.4-3.4-6-3.8c-1.2-0.2-3.1-0.3-5.9-0.3h-1.5V80.9z" class="st1_1586361025963" vector-effect="non-scaling-stroke" style="fill: rgb(201, 201, 201);"/>
		<path d="M905,61.2h-4.8c-0.8-4.3-3.2-6.5-7.2-6.5c-2.8,0-5,1.1-6.6,3.4c-1.8,2.5-2.6,5.9-2.6,10    c0,4.2,0.9,7.6,2.7,10.1c1.6,2.2,3.8,3.3,6.6,3.3c4.5,0,7-2.8,7.5-8.4h4.9c-0.2,3.1-0.9,5.7-2,7.7c-2.1,3.6-5.5,5.4-10.2,5.4    c-4.2,0-7.7-1.4-10.4-4.2c-3.2-3.3-4.8-7.9-4.8-13.8c0-6.4,1.8-11.3,5.4-14.6c2.6-2.4,5.9-3.6,9.6-3.6c2.4,0,4.5,0.5,6.4,1.5    C902.7,53.3,904.5,56.5,905,61.2z" class="st1_1586361025963" vector-effect="non-scaling-stroke" style="fill: rgb(201, 201, 201);"/>
		<path d="M917,65.1h15.1V50.6h5.4v35h-5.4v-16H917v16h-5.4v-35h5.4V65.1z" class="st1_1586361025963" vector-effect="non-scaling-stroke" style="fill: rgb(201, 201, 201);"/>
		<path d="M954.6,50.5h5.3l12,35.1h-5.6l-2.6-8.2h-12.7l-2.6,8.2h-5.6L954.6,50.5z M962.2,72.7L957.2,57l-4.9,15.7    H962.2z" class="st1_1586361025963" vector-effect="non-scaling-stroke" style="fill: rgb(201, 201, 201);"/>
		<path d="M976.9,50.6h5.6v30.3h15.1v4.7h-20.7V50.6z" class="st1_1586361025963" vector-effect="non-scaling-stroke" style="fill: rgb(201, 201, 201);"/>
		<path d="M1003,50.6h5.6v30.3h15.1v4.7H1003V50.6z" class="st1_1586361025963" vector-effect="non-scaling-stroke" style="fill: rgb(201, 201, 201);"/>
		<path d="M1034.4,65.1h14v4.7h-14v11.1h15.8v4.7H1029v-35h20.7v4.6h-15.3V65.1z" class="st1_1586361025963" vector-effect="non-scaling-stroke" style="fill: rgb(201, 201, 201);"/>
		<path d="M1056.4,50.6h5.8l15.4,26.7V50.6h5.1v35h-5.6l-15.6-26.7v26.7h-5.2V50.6z" class="st1_1586361025963" vector-effect="non-scaling-stroke" style="fill: rgb(201, 201, 201);"/>
		<path d="M1105.6,67.8h11.7v14.5c-3.7,2.6-7.8,3.9-12.3,3.9c-4.5,0-8.2-1.4-10.9-4.3c-1.6-1.6-2.7-3.6-3.5-5.9    c-0.8-2.5-1.2-5.2-1.2-8c0-6,1.6-10.6,4.7-13.9c2.7-2.8,6.2-4.3,10.4-4.3c2.5,0,4.7,0.5,6.6,1.6c3.3,1.8,5.2,5,5.6,9.6h-4.8    c-0.8-4.3-3.3-6.4-7.4-6.4c-2.8,0-5,1-6.6,3c-2,2.5-2.9,6-2.9,10.4c0,4.5,1,7.9,3,10.4c1.6,2,3.9,3,6.9,3c2.7,0,5.2-0.8,7.6-2.3    v-7.1h-7.1V67.8z" class="st1_1586361025963" vector-effect="non-scaling-stroke" style="fill: rgb(201, 201, 201);"/>
		<path d="M1130,65.1h14v4.7h-14v11.1h15.8v4.7h-21.2v-35h20.7v4.6H1130V65.1z" class="st1_1586361025963" vector-effect="non-scaling-stroke" style="fill: rgb(201, 201, 201);"/>
		<path d="M1173.5,60.3h-5.2c-0.1-1.5-0.6-2.7-1.3-3.6c-1.1-1.3-2.8-2-4.9-2c-1.5,0-2.8,0.4-3.8,1.1    c-1.2,0.9-1.8,2-1.8,3.4c0,1.3,0.6,2.3,1.9,3.1c0.8,0.5,2.8,1.4,5.9,2.7c2.7,1.1,4.6,2,5.6,2.6c3.1,1.9,4.7,4.6,4.7,8.2    c0,3.4-1.3,6.1-3.9,8.1c-2.1,1.6-4.8,2.3-8.1,2.3c-4.9,0-8.4-1.6-10.7-4.8c-1.2-1.8-1.9-4.2-2.1-7.2h5.3c0.2,2.2,0.8,3.8,1.8,5    c1.3,1.5,3.3,2.3,5.8,2.3c1.8,0,3.4-0.5,4.6-1.4c1.2-0.9,1.7-2,1.7-3.4c0-1.5-0.8-2.8-2.3-3.8c-0.8-0.6-2.7-1.5-5.7-2.8    c-3.6-1.5-6-2.9-7.2-4c-1.9-1.7-2.8-3.9-2.8-6.5c0-3.2,1.3-5.8,3.9-7.5c2.1-1.5,4.6-2.2,7.4-2.2c4.2,0,7.4,1.4,9.5,4.3    C1172.7,55.8,1173.3,57.8,1173.5,60.3z" class="st1_1586361025963" vector-effect="non-scaling-stroke" style="fill: rgb(201, 201, 201);"/>
	</g>
</g><g class="st2_1586361025963" id="Ebene_2_1586361025963">
	<path d="M-16.3,35V0.5H0v85h-16.3V51.3h-29.1v34.3h-16.3v-85h16.3V35H-16.3z" class="st3_1586361025963" vector-effect="non-scaling-stroke" style="fill: rgb(201, 201, 201);"/>
	<path d="M688,35V0.5h16.3v85H688V51.3h-29.1v34.3h-16.3v-85h16.3V35H688z" class="st3_1586361025963" vector-effect="non-scaling-stroke" style="fill: rgb(201, 201, 201);"/>
	<path d="M-78.1,35V0.5h16.3v85h-16.3V51.3h-29.1v34.3h-16.3v-85h16.3V35H-78.1z" class="st3_1586361025963" vector-effect="non-scaling-stroke" style="fill: rgb(201, 201, 201);"/>
	<path d="M1280.7,35V0.5h16.3v85h-16.3V51.3h-29.1v34.3h-16.3v-85h16.3V35H1280.7z" class="st3_1586361025963" vector-effect="non-scaling-stroke" style="fill: rgb(201, 201, 201);"/>
	<path d="M1218.9,35V0.5h16.3v85h-16.3V51.3h-29.1v34.3h-16.3v-85h16.3V35H1218.9z" class="st3_1586361025963" vector-effect="non-scaling-stroke" style="fill: rgb(201, 201, 201);"/>
	<path d="M45.5-50.1v-34.4h16.3v85H45.5v-34.3H16.3V0.5H0v-85h16.3v34.4H45.5z" class="st3_1586361025963" vector-effect="non-scaling-stroke" style="fill: rgb(201, 201, 201);"/>
	<path d="M45.5,120V85.6h16.3v85H45.5v-34.3H16.3v34.3H0v-85h16.3V120H45.5z" class="st3_1586361025963" vector-effect="non-scaling-stroke" style="fill: rgb(201, 201, 201);"/>
</g></g></svg>