<svg id="visual" viewBox="0 0 900 50" width="900" height="50" xmlns="http://www.w3.org/2000/svg" xmlns:xlink="http://www.w3.org/1999/xlink" version="1.1"><path d="M0 9L13.7 9.7C27.3 10.3 54.7 11.7 82 12.2C109.3 12.7 136.7 12.3 163.8 12.5C191 12.7 218 13.3 245.2 12.5C272.3 11.7 299.7 9.3 327 9C354.3 8.7 381.7 10.3 409 10.5C436.3 10.7 463.7 9.3 491 8.7C518.3 8 545.7 8 573 9C600.3 10 627.7 12 654.8 12.2C682 12.3 709 10.7 736.2 10.2C763.3 9.7 790.7 10.3 818 10.7C845.3 11 872.7 11 886.3 11L900 11L900 0L886.3 0C872.7 0 845.3 0 818 0C790.7 0 763.3 0 736.2 0C709 0 682 0 654.8 0C627.7 0 600.3 0 573 0C545.7 0 518.3 0 491 0C463.7 0 436.3 0 409 0C381.7 0 354.3 0 327 0C299.7 0 272.3 0 245.2 0C218 0 191 0 163.8 0C136.7 0 109.3 0 82 0C54.7 0 27.3 0 13.7 0L0 0Z" fill="#f5f5f5"></path><path d="M0 27L13.7 26.7C27.3 26.3 54.7 25.7 82 25.2C109.3 24.7 136.7 24.3 163.8 24.5C191 24.7 218 25.3 245.2 25.7C272.3 26 299.7 26 327 26.3C354.3 26.7 381.7 27.3 409 25.5C436.3 23.7 463.7 19.3 491 18.8C518.3 18.3 545.7 21.7 573 23.2C600.3 24.7 627.7 24.3 654.8 24.2C682 24 709 24 736.2 24.8C763.3 25.7 790.7 27.3 818 27.3C845.3 27.3 872.7 25.7 886.3 24.8L900 24L900 9L886.3 9C872.7 9 845.3 9 818 8.7C790.7 8.3 763.3 7.7 736.2 8.2C709 8.7 682 10.3 654.8 10.2C627.7 10 600.3 8 573 7C545.7 6 518.3 6 491 6.7C463.7 7.3 436.3 8.7 409 8.5C381.7 8.3 354.3 6.7 327 7C299.7 7.3 272.3 9.7 245.2 10.5C218 11.3 191 10.7 163.8 10.5C136.7 10.3 109.3 10.7 82 10.2C54.7 9.7 27.3 8.3 13.7 7.7L0 7Z" fill="#b9b9b9"></path><path d="M0 40L13.7 39.2C27.3 38.3 54.7 36.7 82 36.3C109.3 36 136.7 37 163.8 37.7C191 38.3 218 38.7 245.2 39.2C272.3 39.7 299.7 40.3 327 39.7C354.3 39 381.7 37 409 36.5C436.3 36 463.7 37 491 38C518.3 39 545.7 40 573 40.7C600.3 41.3 627.7 41.7 654.8 41.5C682 41.3 709 40.7 736.2 39.8C763.3 39 790.7 38 818 37.3C845.3 36.7 872.7 36.3 886.3 36.2L900 36L900 22L886.3 22.8C872.7 23.7 845.3 25.3 818 25.3C790.7 25.3 763.3 23.7 736.2 22.8C709 22 682 22 654.8 22.2C627.7 22.3 600.3 22.7 573 21.2C545.7 19.7 518.3 16.3 491 16.8C463.7 17.3 436.3 21.7 409 23.5C381.7 25.3 354.3 24.7 327 24.3C299.7 24 272.3 24 245.2 23.7C218 23.3 191 22.7 163.8 22.5C136.7 22.3 109.3 22.7 82 23.2C54.7 23.7 27.3 24.3 13.7 24.7L0 25Z" fill="#808080"></path><path d="M0 46L13.7 45.7C27.3 45.3 54.7 44.7 82 45C109.3 45.3 136.7 46.7 163.8 47.2C191 47.7 218 47.3 245.2 47C272.3 46.7 299.7 46.3 327 45.7C354.3 45 381.7 44 409 43.8C436.3 43.7 463.7 44.3 491 44.8C518.3 45.3 545.7 45.7 573 45.8C600.3 46 627.7 46 654.8 45.5C682 45 709 44 736.2 44.2C763.3 44.3 790.7 45.7 818 46.2C845.3 46.7 872.7 46.3 886.3 46.2L900 46L900 34L886.3 34.2C872.7 34.3 845.3 34.7 818 35.3C790.7 36 763.3 37 736.2 37.8C709 38.7 682 39.3 654.8 39.5C627.7 39.7 600.3 39.3 573 38.7C545.7 38 518.3 37 491 36C463.7 35 436.3 34 409 34.5C381.7 35 354.3 37 327 37.7C299.7 38.3 272.3 37.7 245.2 37.2C218 36.7 191 36.3 163.8 35.7C136.7 35 109.3 34 82 34.3C54.7 34.7 27.3 36.3 13.7 37.2L0 38Z" fill="#4b4b4b"></path><path d="M0 51L13.7 51C27.3 51 54.7 51 82 51C109.3 51 136.7 51 163.8 51C191 51 218 51 245.2 51C272.3 51 299.7 51 327 51C354.3 51 381.7 51 409 51C436.3 51 463.7 51 491 51C518.3 51 545.7 51 573 51C600.3 51 627.7 51 654.8 51C682 51 709 51 736.2 51C763.3 51 790.7 51 818 51C845.3 51 872.7 51 886.3 51L900 51L900 44L886.3 44.2C872.7 44.3 845.3 44.7 818 44.2C790.7 43.7 763.3 42.3 736.2 42.2C709 42 682 43 654.8 43.5C627.7 44 600.3 44 573 43.8C545.7 43.7 518.3 43.3 491 42.8C463.7 42.3 436.3 41.7 409 41.8C381.7 42 354.3 43 327 43.7C299.7 44.3 272.3 44.7 245.2 45C218 45.3 191 45.7 163.8 45.2C136.7 44.7 109.3 43.3 82 43C54.7 42.7 27.3 43.3 13.7 43.7L0 44Z" fill="#1c1c1c"></path></svg>