<svg id="visual" viewBox="0 0 900 50" width="900" height="50" xmlns="http://www.w3.org/2000/svg" xmlns:xlink="http://www.w3.org/1999/xlink" version="1.1"><path d="M0 10L82 10L82 5L164 5L164 4L245 4L245 10L327 10L327 4L409 4L409 8L491 8L491 6L573 6L573 7L655 7L655 9L736 9L736 10L818 10L818 6L900 6L900 8L900 0L900 0L818 0L818 0L736 0L736 0L655 0L655 0L573 0L573 0L491 0L491 0L409 0L409 0L327 0L327 0L245 0L245 0L164 0L164 0L82 0L82 0L0 0Z" fill="#f5f5f5"></path><path d="M0 22L82 22L82 12L164 12L164 10L245 10L245 20L327 20L327 11L409 11L409 16L491 16L491 19L573 19L573 15L655 15L655 21L736 21L736 15L818 15L818 15L900 15L900 17L900 6L900 4L818 4L818 8L736 8L736 7L655 7L655 5L573 5L573 4L491 4L491 6L409 6L409 2L327 2L327 8L245 8L245 2L164 2L164 3L82 3L82 8L0 8Z" fill="#b9b9b9"></path><path d="M0 26L82 26L82 19L164 19L164 14L245 14L245 29L327 29L327 18L409 18L409 23L491 23L491 25L573 25L573 25L655 25L655 27L736 27L736 20L818 20L818 21L900 21L900 26L900 15L900 13L818 13L818 13L736 13L736 19L655 19L655 13L573 13L573 17L491 17L491 14L409 14L409 9L327 9L327 18L245 18L245 8L164 8L164 10L82 10L82 20L0 20Z" fill="#808080"></path><path d="M0 41L82 41L82 33L164 33L164 34L245 34L245 42L327 42L327 36L409 36L409 32L491 32L491 42L573 42L573 38L655 38L655 39L736 39L736 28L818 28L818 33L900 33L900 42L900 24L900 19L818 19L818 18L736 18L736 25L655 25L655 23L573 23L573 23L491 23L491 21L409 21L409 16L327 16L327 27L245 27L245 12L164 12L164 17L82 17L82 24L0 24Z" fill="#4b4b4b"></path><path d="M0 51L82 51L82 51L164 51L164 51L245 51L245 51L327 51L327 51L409 51L409 51L491 51L491 51L573 51L573 51L655 51L655 51L736 51L736 51L818 51L818 51L900 51L900 51L900 40L900 31L818 31L818 26L736 26L736 37L655 37L655 36L573 36L573 40L491 40L491 30L409 30L409 34L327 34L327 40L245 40L245 32L164 32L164 31L82 31L82 39L0 39Z" fill="#1c1c1c"></path></svg>